<?xml version="1.0" encoding="UTF-8" standalone="no"?>
<svg width="514" height="514" viewBox="150 100 514 514" version="1.1" xmlns="http://www.w3.org/2000/svg" xmlns:xlink="http://www.w3.org/1999/xlink">
    <!-- Generator: Sketch 3.8.3 (29802) - http://www.bohemiancoding.com/sketch -->
    <title>circe</title>
    <desc>Created with Sketch.</desc>
    <g id="Page-1" stroke="none" stroke-width="1" fill="none" fill-rule="evenodd">
        <g id="Circe" transform="translate(131.000000, 80.000000)">
            <path d="M76.05,76.3857207 L136.6623,76.3857207 C149.1264,76.3857207 159.50295,86.3789891 159.5376,98.8664041 C159.55965,106.619359 155.67345,113.46158 149.7438,117.535534" id="Path" fill="#F2583A"></path>
            <polyline id="Path" fill="#B8B9BC" points="95.4 205.02183 135.5931 181.98569 135.5931 135.993661 95.4 112.997647"></polyline>
            <path d="M171.45396,91.4976254 C171.45441,93.6297331 171.20016,95.7271246 170.71101,97.7532807 L181.41696,91.4976254 L171.45396,91.4976254 Z M99.16641,73.0133477 L156.52836,105.854298 C160.83126,102.352033 163.35531,97.0923228 163.35396,91.4976254 L144.47961,91.4976254 L144.47961,83.3821808 L161.43741,83.3821808 C158.36796,77.2482573 151.93656,73.0133477 144.52866,73.0133477 L99.16641,73.0133477 Z M108.78696,114.016181 L108.78696,192.054296 L140.88006,173.660641 L140.88006,132.377825 L108.78696,114.016181 Z M100.68696,232.14324 L100.68696,206.046224 L76.78971,219.486302 L68.66586,214.79287 L100.68696,196.696781 L100.68696,100.035975 L148.98006,127.66681 L148.98006,178.367599 L108.78696,201.403739 L108.78696,218.158976 L163.68786,186.727859 L163.68786,119.299786 L68.66586,64.8979031 L144.52866,64.8979031 C156.49776,64.8979031 166.68396,72.6743025 170.16966,83.3821808 L211.38381,83.3821808 L164.81016,110.595521 L171.78786,114.590574 L171.78786,191.437072 L100.68696,232.14324 Z" id="Path" fill="#FFFFFF"></path>
        </g>
    </g>
</svg>
