<?xml version="1.0" encoding="UTF-8" standalone="no"?>
<svg width="514px" height="514px" viewBox="0 0 514 514" version="1.1" xmlns="http://www.w3.org/2000/svg" xmlns:xlink="http://www.w3.org/1999/xlink">
    <!-- Generator: Sketch 3.8.3 (29802) - http://www.bohemiancoding.com/sketch -->
    <title>circe</title>
    <desc>Created with Sketch.</desc>
    <defs></defs>
    <g id="Page-1" stroke="none" stroke-width="1" fill="none" fill-rule="evenodd">
        <g id="Circe" transform="translate(131.000000, 80.000000)">
            <path d="M8.1,211.971356 L125.83935,279.531981 L243.85095,211.968651 L243.85095,76.9118721 L125.8407,9.3489922 L8.1,76.9096178 L8.1,211.971356 Z M125.83485,288.880973 L0,216.675608 L0,72.2053651 L125.8362,0 L251.95095,72.2026599 L251.95095,216.677863 L125.83485,288.880973 Z" id="Path" fill="#33353D"></path>
            <path d="M76.05,76.3857207 L136.6623,76.3857207 C149.1264,76.3857207 159.50295,86.3789891 159.5376,98.8664041 C159.55965,106.619359 155.67345,113.46158 149.7438,117.535534" id="Path" fill="#F2583A"></path>
            <polyline id="Path" fill="#B8B9BC" points="95.4 205.02183 135.5931 181.98569 135.5931 135.993661 95.4 112.997647"></polyline>
            <path d="M171.45396,91.4976254 C171.45441,93.6297331 171.20016,95.7271246 170.71101,97.7532807 L181.41696,91.4976254 L171.45396,91.4976254 Z M99.16641,73.0133477 L156.52836,105.854298 C160.83126,102.352033 163.35531,97.0923228 163.35396,91.4976254 L144.47961,91.4976254 L144.47961,83.3821808 L161.43741,83.3821808 C158.36796,77.2482573 151.93656,73.0133477 144.52866,73.0133477 L99.16641,73.0133477 Z M108.78696,114.016181 L108.78696,192.054296 L140.88006,173.660641 L140.88006,132.377825 L108.78696,114.016181 Z M100.68696,232.14324 L100.68696,206.046224 L76.78971,219.486302 L68.66586,214.79287 L100.68696,196.696781 L100.68696,100.035975 L148.98006,127.66681 L148.98006,178.367599 L108.78696,201.403739 L108.78696,218.158976 L163.68786,186.727859 L163.68786,119.299786 L68.66586,64.8979031 L144.52866,64.8979031 C156.49776,64.8979031 166.68396,72.6743025 170.16966,83.3821808 L211.38381,83.3821808 L164.81016,110.595521 L171.78786,114.590574 L171.78786,191.437072 L100.68696,232.14324 Z" id="Path" fill="#33353D"></path>
            <path d="M77.896,344.712 C78.1946682,344.712 78.4653321,344.833332 78.708,345.076 L80.836,347.4 C79.1933251,349.30401 77.2006784,350.787995 74.858,351.852 C72.5153216,352.916005 69.6920165,353.448 66.388,353.448 C63.4946522,353.448 60.8720118,352.948672 58.52,351.95 C56.1679882,350.951328 54.1613416,349.551342 52.5,347.75 C50.8386584,345.948658 49.5506712,343.788013 48.636,341.268 C47.7213288,338.747987 47.264,335.976015 47.264,332.952 C47.264,329.927985 47.7539951,327.156013 48.734,324.636 C49.7140049,322.115987 51.0906578,319.950676 52.864,318.14 C54.6373422,316.329324 56.7606543,314.924672 59.234,313.926 C61.7073457,312.927328 64.4373184,312.428 67.424,312.428 C70.3733481,312.428 72.916656,312.885329 75.054,313.8 C77.191344,314.714671 79.0906584,315.955992 80.752,317.524 L78.988,320.016 C78.8573327,320.202668 78.7080008,320.356666 78.54,320.478 C78.3719992,320.599334 78.1293349,320.66 77.812,320.66 C77.5693321,320.66 77.312668,320.571334 77.042,320.394 C76.771332,320.216666 76.4493352,319.997335 76.076,319.736 C75.7026648,319.474665 75.2640025,319.194668 74.76,318.896 C74.2559975,318.597332 73.6586701,318.317335 72.968,318.056 C72.2773299,317.794665 71.4746712,317.575334 70.56,317.398 C69.6453288,317.220666 68.5906726,317.132 67.396,317.132 C65.2493226,317.132 63.2846756,317.500663 61.502,318.238 C59.7193244,318.975337 58.1840064,320.025327 56.896,321.388 C55.6079936,322.750673 54.6046703,324.41199 53.886,326.372 C53.1673297,328.33201 52.808,330.525321 52.808,332.952 C52.808,335.453346 53.1673297,337.68399 53.886,339.644 C54.6046703,341.60401 55.5846605,343.26066 56.826,344.614 C58.0673395,345.96734 59.5373248,346.998663 61.236,347.708 C62.9346752,348.417337 64.7639902,348.772 66.724,348.772 C67.9186726,348.772 68.9919952,348.702001 69.944,348.562 C70.8960048,348.421999 71.7779959,348.202668 72.59,347.904 C73.4020041,347.605332 74.1579965,347.227336 74.858,346.77 C75.5580035,346.312664 76.2626631,345.76667 76.972,345.132 C77.2893349,344.851999 77.5973318,344.712 77.896,344.712 L77.896,344.712 Z M94.416,353 L88.984,353 L88.984,312.876 L94.416,312.876 L94.416,353 Z M111.132,336.256 L111.132,353 L105.728,353 L105.728,312.876 L117.068,312.876 C119.606679,312.876 121.799991,313.132664 123.648,313.646 C125.496009,314.159336 127.021994,314.901328 128.226,315.872 C129.430006,316.842672 130.32133,318.013993 130.9,319.386 C131.47867,320.758007 131.768,322.293325 131.768,323.992 C131.768,325.410674 131.544002,326.735994 131.096,327.968 C130.647998,329.200006 129.999338,330.305995 129.15,331.286 C128.300662,332.266005 127.264673,333.10133 126.042,333.792 C124.819327,334.48267 123.433341,335.005332 121.884,335.36 C122.556003,335.752002 123.153331,336.32133 123.676,337.068 L135.38,353 L130.564,353 C129.574662,353 128.846669,352.617337 128.38,351.852 L117.964,337.516 C117.646665,337.067998 117.301335,336.746001 116.928,336.55 C116.554665,336.353999 115.99467,336.256 115.248,336.256 L111.132,336.256 Z M111.132,332.308 L116.816,332.308 C118.402675,332.308 119.797994,332.116669 121.002,331.734 C122.206006,331.351331 123.213996,330.810003 124.026,330.11 C124.838004,329.409997 125.449331,328.574672 125.86,327.604 C126.270669,326.633328 126.476,325.560006 126.476,324.384 C126.476,321.994655 125.687341,320.193339 124.11,318.98 C122.532659,317.766661 120.185349,317.16 117.068,317.16 L111.132,317.16 L111.132,332.308 Z M169.512,344.712 C169.810668,344.712 170.081332,344.833332 170.324,345.076 L172.452,347.4 C170.809325,349.30401 168.816678,350.787995 166.474,351.852 C164.131322,352.916005 161.308017,353.448 158.004,353.448 C155.110652,353.448 152.488012,352.948672 150.136,351.95 C147.783988,350.951328 145.777342,349.551342 144.116,347.75 C142.454658,345.948658 141.166671,343.788013 140.252,341.268 C139.337329,338.747987 138.88,335.976015 138.88,332.952 C138.88,329.927985 139.369995,327.156013 140.35,324.636 C141.330005,322.115987 142.706658,319.950676 144.48,318.14 C146.253342,316.329324 148.376654,314.924672 150.85,313.926 C153.323346,312.927328 156.053318,312.428 159.04,312.428 C161.989348,312.428 164.532656,312.885329 166.67,313.8 C168.807344,314.714671 170.706658,315.955992 172.368,317.524 L170.604,320.016 C170.473333,320.202668 170.324001,320.356666 170.156,320.478 C169.987999,320.599334 169.745335,320.66 169.428,320.66 C169.185332,320.66 168.928668,320.571334 168.658,320.394 C168.387332,320.216666 168.065335,319.997335 167.692,319.736 C167.318665,319.474665 166.880003,319.194668 166.376,318.896 C165.871997,318.597332 165.27467,318.317335 164.584,318.056 C163.89333,317.794665 163.090671,317.575334 162.176,317.398 C161.261329,317.220666 160.206673,317.132 159.012,317.132 C156.865323,317.132 154.900676,317.500663 153.118,318.238 C151.335324,318.975337 149.800006,320.025327 148.512,321.388 C147.223994,322.750673 146.22067,324.41199 145.502,326.372 C144.78333,328.33201 144.424,330.525321 144.424,332.952 C144.424,335.453346 144.78333,337.68399 145.502,339.644 C146.22067,341.60401 147.20066,343.26066 148.442,344.614 C149.68334,345.96734 151.153325,346.998663 152.852,347.708 C154.550675,348.417337 156.37999,348.772 158.34,348.772 C159.534673,348.772 160.607995,348.702001 161.56,348.562 C162.512005,348.421999 163.393996,348.202668 164.206,347.904 C165.018004,347.605332 165.773996,347.227336 166.474,346.77 C167.174003,346.312664 167.878663,345.76667 168.588,345.132 C168.905335,344.851999 169.213332,344.712 169.512,344.712 L169.512,344.712 Z M204.316,312.876 L204.316,317.3 L185.052,317.3 L185.052,330.628 L200.648,330.628 L200.648,334.884 L185.052,334.884 L185.052,348.576 L204.316,348.576 L204.316,353 L179.592,353 L179.592,312.876 L204.316,312.876 Z" id="CIRCE" fill="#33353D"></path>
        </g>
    </g>
</svg>